<svg xmlns="http://www.w3.org/2000/svg" viewBox="0 0 48 48">
  <!-- GitHub Contribution Graph Icon -->
  <!-- 4x4 grid of contribution squares -->

  <!-- GitHub contribution colors:
       level-0: #161b22 (empty)
       level-1: #0e4429
       level-2: #006d32
       level-3: #26a641
       level-4: #39d353 (most)
  -->

  <!-- Grid: 4x4, 10px squares with 2px gap -->
  <!-- Total: 4*10 + 3*2 = 46, offset by 1 to center -->

  <!-- Row 1 -->
  <rect x="1" y="1" width="10" height="10" rx="2" fill="#161b22"/>
  <rect x="13" y="1" width="10" height="10" rx="2" fill="#0e4429"/>
  <rect x="25" y="1" width="10" height="10" rx="2" fill="#161b22"/>
  <rect x="37" y="1" width="10" height="10" rx="2" fill="#006d32"/>

  <!-- Row 2 -->
  <rect x="1" y="13" width="10" height="10" rx="2" fill="#0e4429"/>
  <rect x="13" y="13" width="10" height="10" rx="2" fill="#006d32"/>
  <rect x="25" y="13" width="10" height="10" rx="2" fill="#0e4429"/>
  <rect x="37" y="13" width="10" height="10" rx="2" fill="#39d353"/>

  <!-- Row 3 -->
  <rect x="1" y="25" width="10" height="10" rx="2" fill="#161b22"/>
  <rect x="13" y="25" width="10" height="10" rx="2" fill="#26a641"/>
  <rect x="25" y="25" width="10" height="10" rx="2" fill="#161b22"/>
  <rect x="37" y="25" width="10" height="10" rx="2" fill="#0e4429"/>

  <!-- Row 4 -->
  <rect x="1" y="37" width="10" height="10" rx="2" fill="#0e4429"/>
  <rect x="13" y="37" width="10" height="10" rx="2" fill="#161b22"/>
  <rect x="25" y="37" width="10" height="10" rx="2" fill="#006d32"/>
  <rect x="37" y="37" width="10" height="10" rx="2" fill="#0e4429"/>
</svg>
